<svg xmlns="http://www.w3.org/2000/svg" xmlns:xlink="http://www.w3.org/1999/xlink" version="1.1" id="Capa_1" x="0px" y="0px" viewBox="0 0 150 150" style="enable-background:new 0 0 150 150;" xml:space="preserve" width="150"  height="150" >
<style type="text/css">
	.st0{fill:#2B2B2B;}
</style>
<g>
	<g>
		<path class="st0" d="M98,108.6c-15.3,0-30.6,0-46,0c-0.1-0.1-0.1-0.1-0.3-0.1c-1.7-0.6-2.8-1.6-3.2-3.3c0-0.1-0.1-0.1-0.1-0.2    c0-14.2,0-28.3,0-42.2c0-0.1,0.1-0.1,0.1-0.1c0.7-2.3,2.2-3.5,4.7-3.5c0.4,0,1,0,1.4,0c0-0.4,0-0.7,0-1c0.1-1.6,1.3-2.5,2.9-2.4    c1.3,0.1,2.4,1.2,2.4,2.7c0,0.2,0,0.6,0,0.9c1.2,0,2.4,0,3.5,0c0-0.4,0-1,0.1-1.3c0.2-1.3,1.4-2.1,3-2.1c1.3,0.1,2.2,1.2,2.3,2.5    c0,0.3,0,0.7,0,1c1.3,0,2.4,0,3.5,0c0-0.3,0-0.6,0-0.9c0.1-1.3,1.1-2.5,2.4-2.5c1.4-0.1,2.7,0.8,3,2.2c0.1,0.4,0.1,0.9,0.1,1.3    c1.2,0,2.3,0,3.4,0c0-0.3,0-0.7,0-1c0.1-1.6,1.3-2.5,2.9-2.4c1.3,0.1,2.4,1.2,2.4,2.7c0,0.2,0,0.6,0,0.9c1.2,0,2.4,0,3.5,0    c0-0.4,0-1,0.1-1.3c0.2-1.3,1.4-2.1,3-2.1c1.3,0.1,2.2,1.2,2.3,2.5c0,0.3,0,0.7,0,1c0.7,0,1.3,0,1.8,0c2.4,0,4.4,2,4.4,4.4    c0,13.6,0,27.3,0,40.9c0,1.3-0.6,2.5-1.8,3.4C99.3,108,98.6,108.2,98,108.6z M50.1,67.8c0,0.1,0,0.3,0,0.6c0,11.9,0,23.7,0,35.6    c0,1.8,1.1,3,3,3c14.5,0,29.2,0,43.7,0c1.9,0,3-1.1,3-3c0-11.7,0-23.6,0-35.4c0-0.1,0-0.3,0-0.6C83.2,67.8,66.7,67.8,50.1,67.8z     M50.1,65.9c16.5,0,33,0,49.7,0c0-1,0.1-1.8,0-2.7c-0.1-1-0.6-1.8-1.4-2.2c-1-0.4-1.9-0.2-3-0.2c0,0.4,0,0.7,0,1    c-0.1,1.4-1.3,2.5-2.7,2.4c-1.4-0.1-2.5-1.2-2.5-2.7c0-0.2,0-0.6,0-0.9c-1.2,0-2.3,0-3.5,0c0,0.3,0,0.6,0,1c0,1.4-1.2,2.5-2.5,2.5    s-2.5-1-2.7-2.4c0-0.3-0.1-0.7-0.1-1.1c-0.6,0-1.2,0-1.8,0s-1.1,0-1.8,0c0,0.3,0,0.6,0,0.9c-0.1,1.4-1,2.5-2.5,2.7    c-1.3,0.1-2.5-0.9-2.9-2.3c-0.1-0.4-0.1-0.8-0.1-1.2c-1.2,0-2.3,0-3.5,0c0,0.4,0,0.7,0,1c-0.1,1.4-1.3,2.5-2.7,2.4    c-1.4,0-2.5-1.2-2.5-2.7c0-0.2,0-0.6,0-0.9c-0.7,0-1.2,0-1.8,0s-1.1,0-1.8,0c0,0.3,0,0.6,0,0.9c0,1.4-1.1,2.7-2.5,2.7    c-1.3,0.1-2.5-1-2.8-2.5c0-0.3,0-0.7,0-1c-0.7,0-1.3-0.1-2.1,0c-1.3,0.1-2.3,1.1-2.4,2.5C50.1,64.1,50.1,65,50.1,65.9z M56.4,59.8    c0,0.6,0,1.2,0,1.8s0.3,0.9,0.8,1c0.4,0,1-0.3,1-0.9c0-1.2,0-2.4,0-3.5c0-0.6-0.4-0.9-1-0.9c-0.4,0-0.8,0.4-0.8,1    C56.4,58.6,56.4,59.1,56.4,59.8z M67,59.8c0-0.6,0-1.1,0-1.8c0-0.6-0.4-1-0.9-1s-0.9,0.3-0.9,0.9c0,1.2,0,2.4,0,3.5    c0,0.6,0.4,0.9,1,0.9c0.4,0,0.8-0.4,0.8-1C67,60.9,67,60.3,67,59.8z M83,59.8c0,0.6,0,1.1,0,1.8c0,0.6,0.3,1,0.8,1    c0.4,0,1-0.3,1-0.9c0-1.2,0-2.4,0-3.5c0-0.6-0.4-0.9-1-0.9s-0.8,0.4-0.8,1C83,58.6,83,59.1,83,59.8z M93.6,59.8c0-0.6,0-1.1,0-1.8    c0-0.6-0.3-1-0.9-1c-0.4,0-0.9,0.3-0.9,0.8c0,1.2,0,2.4,0,3.7c0,0.6,0.4,0.9,0.9,0.8c0.4,0,0.9-0.4,0.9-1    C93.6,61,93.6,60.3,93.6,59.8z M74.1,59.8c0,0.6,0,1.2,0,1.8s0.3,1,0.9,1c0.6,0,0.9-0.3,0.9-1c0-1.1,0-2.3,0-3.4    c0-0.6-0.4-1-0.9-1c-0.4,0-0.9,0.4-0.9,1C74.1,58.6,74.1,59.1,74.1,59.8z"/>
		<path class="st0" d="M98.1,109H51.8l-0.4-0.2c-1.8-0.6-2.9-1.8-3.4-3.5l-0.1-0.1l-0.1-0.2V62.6c0-0.1,0.1-0.3,0.1-0.3    c0.7-2.4,2.4-3.8,5.1-3.8h1v-0.6c0.2-1.9,1.6-3,3.4-3c1.7,0.1,3,1.4,3,3.1v0.3h2.4c0-0.3,0-0.7,0.1-1c0.2-1.6,1.7-2.5,3.4-2.5    c1.6,0.2,2.8,1.4,2.8,3v0.4h2.5v-0.3c0.1-1.7,1.4-3.1,2.9-3.1c1.7-0.1,3.1,1,3.4,2.7c0,0.2,0.1,0.4,0.1,0.7c0,0.1,0,0.1,0,0.2h2.5    v-0.4c0.2-1.9,1.6-3.1,3.4-3c1.7,0.1,3,1.4,3,3.1v0.3h2.5c0-0.3,0-0.7,0.1-1c0.2-1.6,1.7-2.5,3.4-2.5c1.6,0.2,2.8,1.4,2.8,3v0.4    h1.2c2.7,0,4.9,2.2,4.9,4.9V104c0,1.6-0.7,2.9-2,3.9c-0.3,0.2-0.7,0.3-1,0.4C98.7,108.7,98.5,108.8,98.1,109L98.1,109z M52.1,108    h45.8c0.3-0.1,0.7-0.2,0.9-0.3c0.3-0.1,0.6-0.2,0.8-0.3c1-0.7,1.4-1.8,1.4-3V63.4c0-2.1-1.8-3.9-3.9-3.9h-2.2v-1.4    C94.7,57,94,56.2,93,56c-1.2,0-2.2,0.7-2.4,1.8c0,0.3,0,0.8,0,1.2v0.4H86v-1.3c0-1.1-0.9-2.1-2-2.1c-1.3-0.1-2.2,0.8-2.3,2v1.4    h-4.3L77.2,59c0-0.2-0.1-0.4-0.1-0.7c0-0.2,0-0.4-0.1-0.6c-0.2-1.2-1.2-1.9-2.4-1.9c-1,0-1.9,1-1.9,2.1v1.3h-4.5v-1.4    c-0.1-1.1-0.9-1.9-1.9-2.1c-1.2,0-2.2,0.7-2.4,1.8c-0.1,0.3-0.1,0.8-0.1,1.2v0.4h-4.5v-1.3c0-1.1-0.9-2.1-2-2.1    c-1.3-0.1-2.2,0.8-2.3,2v1.4H53c-2.2,0-3.5,1.1-4.2,3.1l-0.1,0.1v42c0.1,0.1,0.1,0.2,0.1,0.3c0.4,1.4,1.3,2.4,2.9,2.9L52.1,108z     M96.8,107.3H53.1c-2.1,0-3.4-1.4-3.4-3.4V67.2h0.4c16.3,0,33.1,0,49.7,0.1h0.4v36.5C100.3,106,98.8,107.3,96.8,107.3z M50.6,68.2    v35.6c0,1.6,1,2.4,2.4,2.4h43.7c1.6,0,2.4-0.9,2.4-2.4V68.3C83,68.2,66.6,68.2,50.6,68.2z M100.3,66.3H49.6v-0.9    c0-0.8,0-1.6,0.2-2.3c0.1-1.7,1.2-2.8,2.9-3c0.6-0.1,1,0,1.4,0c0.2,0,0.4,0,0.7,0h0.4v1.4c0.1,1.2,1.1,2.1,2.2,2.1    c1.2,0,2.1-1,2.1-2.1v-1.3h4.5v1.3c0,1.2,0.9,2.1,2.1,2.1c0.6,0,1-0.1,1.4-0.6c0.4-0.3,0.7-0.9,0.8-1.6v-1.4h4.3v0.4    c0,0.3,0,0.8,0.1,1.1c0.2,1.2,1.2,2,2.3,1.9c1.2-0.1,2.1-0.9,2.1-2.2V60h4.5v0.4c0,0.2,0,0.3,0,0.6s0,0.3,0,0.6c0.1,1.1,1,2,2.1,2    s2.1-1,2.1-2.1V60h4.5v1.3c0,1.1,0.9,2.1,2.1,2.1c1.1,0.1,2-0.9,2.1-2V60h0.4c0.2,0,0.6,0,0.8,0c0.8,0,1.6-0.1,2.4,0.3    c1,0.6,1.7,1.4,1.7,2.7c0,0.6,0,1.1,0,1.8c0,0.3,0,0.6,0,0.9v0.7H100.3z M50.6,65.3h48.7c0-0.1,0-0.3,0-0.4c0-0.6,0-1.1,0-1.7    c-0.1-0.8-0.4-1.4-1.2-1.9c-0.6-0.3-1.2-0.2-1.9-0.2c-0.1,0-0.2,0-0.3,0v0.6c-0.2,1.8-1.6,3.1-3.2,3c-1.8-0.1-3-1.4-3-3.1v-0.3    h-2.5v0.4c0,1.7-1.3,3.1-3.1,3.1c-1.7,0-3-1.3-3.1-3c0-0.1,0-0.3,0-0.4c0-0.1,0-0.1,0-0.2h-2.5v0.3c-0.1,1.8-1.3,3-3,3.1    c-1.6,0.2-3-1-3.4-2.7c-0.1-0.3-0.1-0.6-0.1-0.8h-2.5v0.4c0,0.9-0.4,1.7-1,2.2c-0.6,0.6-1.3,0.8-2.1,0.8l0,0c-1.7,0-3-1.4-3-3.1    v-0.3h-2.5v0.3c0,1.8-1.3,3.1-3.1,3.1c-1.6,0.1-3-1.2-3.2-3V61c-0.1,0-0.1,0-0.2,0c-0.4,0-0.9,0-1.3,0c-1.1,0.1-1.9,0.9-2,2.1v0.1    C50.6,64,50.6,64.7,50.6,65.3z M83.8,63c-0.8,0-1.3-0.7-1.3-1.4v-3.4c0-0.9,0.6-1.4,1.3-1.4c0.7,0,1.4,0.6,1.4,1.3v3.5    C85.2,62.4,84.4,63,83.8,63z M83.8,57.6c-0.3,0-0.3,0.3-0.3,0.4v3.4c0,0.1,0,0.4,0.3,0.4c0.1,0,0.4-0.1,0.4-0.3V58    C84.2,57.7,83.9,57.6,83.8,57.6z M75,63c-0.8,0-1.3-0.6-1.3-1.4v-3.4c0-0.8,0.6-1.4,1.3-1.4c0.8,0,1.3,0.7,1.3,1.4v3.4    C76.3,62.4,75.8,63,75,63z M75,57.6c-0.2,0-0.3,0.2-0.3,0.4v3.4c0,0.4,0.3,0.4,0.3,0.4c0.2,0,0.3,0,0.3-0.4V58    C75.3,57.8,75.2,57.6,75,57.6z M57.2,63c-0.8-0.1-1.3-0.7-1.3-1.4v-3.4c0-0.9,0.6-1.4,1.3-1.4c0.7,0,1.4,0.6,1.4,1.3v3.5    C58.6,62.4,57.8,63,57.2,63z M57.2,57.6c-0.3,0-0.3,0.3-0.3,0.4v3.4c0,0.3,0.1,0.4,0.3,0.4c0.1,0,0.3-0.1,0.3-0.4v-3.5    C57.6,57.7,57.3,57.6,57.2,57.6z M66.1,62.9c-0.9,0-1.4-0.6-1.4-1.3V58c0-0.8,0.6-1.3,1.3-1.3c0.8,0,1.3,0.7,1.3,1.4v3.4    C67.5,62.2,66.9,62.9,66.1,62.9z M66.1,57.6c-0.1,0-0.3,0-0.3,0.3v3.5c0,0.1,0,0.3,0.4,0.3c0.3,0,0.3-0.3,0.3-0.4v-3.4    C66.5,57.7,66.4,57.6,66.1,57.6z M92.5,62.8c-0.2,0-0.6-0.1-0.8-0.3c-0.3-0.2-0.4-0.6-0.4-1v-3.7c0-0.8,0.6-1.3,1.3-1.3    S94,57,94,57.9v3.3c0,0.8-0.6,1.4-1.3,1.4C92.6,62.8,92.6,62.8,92.5,62.8z M92.7,57.6c-0.1,0-0.3,0.1-0.3,0.3v3.7    c0,0.1,0,0.2,0.1,0.2c0.1,0,0.1,0,0.2,0c0.3,0,0.4-0.2,0.4-0.4V58C93.1,57.6,92.9,57.6,92.7,57.6z"/>
	</g>
	<g>
		<path class="st0" d="M75.9,78.2c0.7-0.6,1.2-1.3,1.9-1.8c4.3-3.3,10.3-1.6,11.9,3.4c1,3.1,0.4,6-1.4,8.6c-1.4,2-3.1,3.7-5,5.3    c-2.1,1.9-4.4,3.9-6.8,5.9c-0.4,0.4-0.8,0.4-1.2,0.1c-3-2.5-5.9-5-8.6-7.6c-1.7-1.6-3.2-3.3-4.1-5.3c-1.2-2.8-1.2-5.5,0.3-8.3    c1.3-2.2,3.4-3.5,6.2-3.5c2-0.1,3.8,0.7,5.2,1.9C74.8,77.1,75.3,77.6,75.9,78.2z M75.9,98.2c3-2.8,5.9-5.3,8.8-7.9    c1.2-1.1,2.1-2.4,3-3.8c1.4-2.8,1.4-5.3-0.2-7.9c-1.8-2.8-5.2-3.3-8.1-1.7c-1.2,0.7-2.1,1.7-2.8,2.9c-0.1,0.3-0.4,0.6-0.7,0.6    c-0.4,0-0.7-0.2-0.8-0.6c-0.4-1-1.2-1.8-2.1-2.4c-2.9-2.2-6.8-1.6-8.8,1.4c-1.1,1.8-1.4,3.8-0.9,5.8c0.4,1.9,1.6,3.4,2.8,4.8    C69,92.7,72.6,95.4,75.9,98.2z"/>
		<path class="st0" d="M75.8,100.4c-0.3,0-0.6-0.1-0.9-0.3l-0.4-0.3c-2.9-2.4-5.5-4.9-8.3-7.3c-2-1.8-3.4-3.7-4.2-5.5    c-1.3-3-1.2-6,0.3-8.8c1.4-2.4,3.8-3.8,6.7-3.9c2-0.1,4,0.7,5.5,2c0.3,0.3,0.7,0.6,1,0.9c0.1,0.1,0.2,0.2,0.3,0.3    c0.1-0.1,0.3-0.3,0.4-0.4c0.3-0.3,0.7-0.8,1.1-1c2.2-1.7,5.1-2.2,7.6-1.4c2.4,0.8,4.3,2.7,5.1,5.1c1,3.1,0.6,6.1-1.6,9.1    c-1.3,1.9-3,3.5-5.1,5.3c-2.2,2-4.7,4.1-6.8,5.9C76.5,100.2,76.1,100.4,75.8,100.4z M69.2,75.2c-0.1,0-0.2,0-0.3,0    c-2.5,0.1-4.5,1.2-5.9,3.3c-1.3,2.4-1.4,5.2-0.3,7.9c0.8,1.8,2.1,3.4,4,5.2c2.7,2.5,5.4,4.9,8.2,7.3l0.3,0.3    c0.2,0.1,0.2,0.2,0.6-0.1c2-1.8,4.4-3.9,6.7-5.9c2.1-1.8,3.7-3.4,5-5.2c1.9-2.7,2.3-5.4,1.3-8.2c-0.7-2.2-2.3-3.8-4.4-4.4    c-2.2-0.7-4.8-0.2-6.8,1.2c-0.3,0.2-0.7,0.6-1,0.9c-0.2,0.2-0.6,0.6-0.8,0.8l-0.3,0.3l-0.3-0.3c-0.2-0.2-0.4-0.4-0.7-0.7    c-0.3-0.3-0.7-0.6-1-0.9C72.5,75.7,71,75.2,69.2,75.2z M75.9,98.9l-0.3-0.3c-1-0.9-2-1.7-2.9-2.5c-2.3-2-4.8-4.1-7-6.4    c-1.4-1.6-2.4-3.2-2.9-5c-0.6-2.1-0.2-4.2,0.9-6.1c1-1.6,2.5-2.5,4.3-2.9c1.8-0.3,3.7,0.1,5.2,1.3c1,0.8,1.8,1.7,2.3,2.7    c0.2,0.6,0.4,0.3,0.7,0c0.7-1.3,1.7-2.3,2.9-3.1c3.2-1.9,6.9-1.1,8.8,1.9c1.8,2.7,1.8,5.4,0.2,8.4c-0.9,1.6-1.9,2.8-3.1,3.9    c-1.3,1.2-2.8,2.5-4.1,3.8c-1.6,1.3-3,2.8-4.5,4.1L75.9,98.9z M69.1,76.5c-0.3,0-0.7,0-0.9,0.1c-1.4,0.2-2.8,1.1-3.7,2.4    c-1.1,1.7-1.3,3.5-0.8,5.3c0.4,1.6,1.3,3.1,2.7,4.5c2.1,2.3,4.4,4.2,6.9,6.3c0.9,0.8,1.8,1.4,2.7,2.2c1.4-1.3,2.9-2.5,4.2-3.9    c1.3-1.2,2.8-2.4,4.1-3.8c1.1-1,2-2.2,2.9-3.7c1.3-2.7,1.3-5-0.2-7.4c-1.6-2.4-4.7-3.1-7.4-1.6c-1.1,0.7-1.9,1.6-2.5,2.7    c-0.2,0.6-0.7,0.8-1.1,0.8c-0.3,0-0.9-0.1-1.2-0.9c-0.4-0.9-1.1-1.7-2-2.3C71.6,77,70.4,76.5,69.1,76.5z"/>
	</g>
</g>
</svg>