<svg xmlns="http://www.w3.org/2000/svg" xmlns:xlink="http://www.w3.org/1999/xlink" version="1.1" id="Capa_1" x="0px" y="0px" viewBox="0 0 150 150" style="enable-background:new 0 0 150 150;" xml:space="preserve" width="150"  height="150" >
<style type="text/css">
	.st0{fill:#FFFFFF;}
</style>
<path class="st0" d="M50.7,43.8c3,0,6,0,9,0c1.6,0,2.2,1,1.5,2.4c-1.3,2.6-2.7,5.2-4,7.8c-0.2,0.3-0.3,0.8-0.2,1.1  c1,6,2.1,11.9,3.2,17.9c0.8,4.6,1.6,9.1,2.4,13.7c0.3,1.6-0.1,3-1.1,4.2c-2.3,2.8-4.5,5.6-6.9,8.4c-2.2,2.6-5.7,2.6-7.8,0  c-2.3-2.8-4.6-5.6-6.9-8.4c-1-1.3-1.3-2.7-1.1-4.3c1.5-8.2,2.9-16.5,4.4-24.7c0.4-2.3,0.8-4.5,1.2-6.8c0.1-0.3,0-0.7-0.1-0.9  c-1.3-2.6-2.7-5.3-4.1-7.9c-0.7-1.4-0.1-2.4,1.5-2.4C44.6,43.8,47.7,43.8,50.7,43.8z M54.1,55.8c-2.3,0-4.5,0-6.6,0  c-0.4,0-0.4,0.3-0.4,0.5c-1.8,10.2-3.6,20.5-5.5,30.7c-0.1,0.8,0,1.4,0.5,2.1c2.2,2.7,4.5,5.4,6.7,8.2c1.1,1.3,2.5,1.3,3.6,0  c1.9-2.3,3.8-4.6,5.6-6.9c2-2.4,1.8-1.8,1.3-5c-1.3-7.3-2.6-14.6-3.9-21.9C54.9,60.9,54.6,58.4,54.1,55.8z M57.7,46.7  c-4.7,0-9.3,0-14,0c1,2,2.1,4,3.1,6c0.1,0.1,0.3,0.2,0.5,0.2c2.3,0,4.6,0,6.9,0c0.2,0,0.4-0.1,0.5-0.2  C55.6,50.7,56.6,48.7,57.7,46.7z"/>
<path class="st0" d="M112.4,98.7c0,0.2,0,0.5,0,0.7c0,2.7,0,5.5,0,8.2c0,0.8-0.2,1.3-0.9,1.7c-11.3,0-22.6,0-33.9,0  c-0.8-0.4-1.1-1-1.1-1.9c0-3.1,0-6.3,0-9.4C76.4,91.1,78,84.7,81,78.5c1.4-2.8,3-5.6,4.5-8.3c0.2-0.3,0.2-0.7,0.2-1  c-0.4-2.8-0.8-5.6-1.3-8.3c-0.1-0.3-0.2-0.7-0.3-1c-1.1-2-2.1-4.1-3.2-6c-0.6-1-0.5-1.8,0.1-2.7c0.3-0.4,0.5-0.8,0.9-1.1  c0.6-0.4,0.6-0.9,0.6-1.5c0-1.8,0-3.6,0-5.4c0-1.3,0.5-1.8,1.8-1.8c1.5,0,3,0,4.4,0c1.3,0,1.7,0.4,1.7,1.7c0,1.8,0,3.6,0,5.4  c0,0.2,0.1,0.5,0.2,0.6c1.3,1,2.6,2,3.9,3c1.2-0.9,2.4-1.9,3.7-2.9c0.1-0.1,0.2-0.4,0.2-0.6c0-1.8,0-3.6,0-5.4  c0-1.3,0.5-1.8,1.8-1.8c1.5,0,3.1,0,4.6,0c1.1,0,1.5,0.5,1.5,1.5c0,2,0,4.1,0,6.1c0,0.5,0.1,0.8,0.5,1.1c0.5,0.4,0.9,0.9,1.2,1.4  c0.5,0.7,0.6,1.5,0.1,2.4c-1,1.9-2,3.8-3,5.7c-0.6,1.1-0.7,2.3-0.9,3.4c-0.4,2.1-0.7,4.2-1,6.4c0,0.2,0,0.5,0,0.6  c0.7,1.3,1.4,2.5,2.2,3.8C108.2,78.8,112.4,86.4,112.4,98.7z M103.3,75.2c-0.5-0.9-1-1.7-1.4-2.5c-0.4-0.9-0.9-1.6-2-1.3  c0,0,0,0-0.1,0c-0.7-0.1-1.2-0.7-1.1-1.3c0-0.6,0.5-1.2,1.1-1.3c0.3,0,0.6,0,0.9-0.1c0-0.1,0.1-0.2,0.1-0.3c0.3-2.1,0.6-4.2,1-6.2  c0.2-1.2,0.3-2.4,0.9-3.6c1-1.8,1.9-3.6,2.9-5.4c0.2-0.4,0.2-0.6-0.1-0.9c-1.3-1.3-4.3-1.8-5.8-0.7c-1.3,1-2.5,2.1-3.7,3.3  c-1.1,1.1-1.7,1.1-2.7,0c-0.7-0.8-1.4-1.6-2.2-2.3c-1.1-1-2.3-1.8-3.9-1.6c-1.1,0.1-2.2,0.3-3.1,0.9c-0.7,0.5-0.7,0.6-0.3,1.3  c1,1.9,2,3.8,3,5.7c0.2,0.3,0.3,0.6,0.4,1c0.3,1.5,0.5,3,0.7,4.5c0.2,1.4,0.5,2.9,0.7,4.3c0.4,0,0.7,0,1.1,0  c0.7,0.1,1.3,0.6,1.3,1.3c0,0.7-0.5,1.2-1.2,1.3c-0.4,0-0.8,0-1.1,0c-0.2,0-0.5,0.2-0.6,0.3c-1.6,3-3.3,5.9-4.7,9  c-2.4,5.2-3.8,10.7-3.8,16.5c0,3,0,6,0,9c0,0.1,0,0.3,0,0.4c0.9,0,1.7,0,2.6,0c0-2.2,0-4.3,0-6.4c0-0.9,0.6-1.5,1.4-1.5  c0.7,0,1.3,0.6,1.3,1.5c0,1.3,0,2.5,0,3.8c0,0.9,0,1.8,0,2.6c0.9,0,1.8,0,2.7,0c0-0.9,0-1.8,0-2.6c0-0.7,0.6-1.3,1.3-1.3  c0.7,0,1.3,0.5,1.4,1.2c0,0.3,0,0.6,0,0.9c0,0.6,0,1.3,0,1.9c4.8,0,9.4,0,14.1,0c0.1,0,0.3,0,0.5,0c0-0.9,0-1.7,0-2.6  c0-0.6,0.3-1.1,0.9-1.3c0.5-0.2,1,0,1.4,0.4c0.2,0.3,0.3,0.7,0.3,1.1c0.1,0.8,0,1.6,0,2.4c0.9,0,1.8,0,2.6,0c0-2.7,0-5.4,0-8.1  C109.8,88.2,106.2,79,103.3,75.2z M101.2,48.2c0.9,0.1,1.7,0.2,2.6,0.3c0-1.5,0-3,0-4.4c-0.9,0-1.7,0-2.6,0  C101.2,45.4,101.2,46.8,101.2,48.2z M85.2,44c0,1.5,0,3,0,4.4c0.9-0.1,1.7-0.2,2.6-0.3c0-1.4,0-2.8,0-4.2C86.9,44,86.2,44,85.2,44z"/>
<path class="st0" d="M96.2,74c0,0.8-0.7,1.5-1.5,1.5s-1.5-0.7-1.5-1.5s0.7-1.5,1.5-1.5C95.5,72.5,96.2,73.3,96.2,74z"/>
</svg>