<?xml version="1.0" encoding="utf-8"?>
<!-- Generator: Adobe Illustrator 26.2.1, SVG Export Plug-In . SVG Version: 6.00 Build 0)  -->
<svg version="1.1" id="Capa_1" xmlns="http://www.w3.org/2000/svg" xmlns:xlink="http://www.w3.org/1999/xlink" x="0px" y="0px"
	 viewBox="0 0 150 150" style="enable-background:new 0 0 150 150;" xml:space="preserve">
<style type="text/css">
	.st0{fill:#2B2B2B;}
</style>
<g>
	<path class="st0" d="M64.9,113.8c-12.7,0-22.9-10.3-22.9-22.9s10.3-22.9,22.9-22.9s22.9,10.3,22.9,22.9S77.6,113.8,64.9,113.8z
		 M64.9,71c-11,0-19.8,8.9-19.8,19.8s8.9,19.8,19.8,19.8s19.8-8.9,19.8-19.8C84.7,79.9,75.8,71,64.9,71z"/>
	<path class="st0" d="M90.8,113.8c-11.3,0-20.5-9.2-20.5-20.5s9.2-20.5,20.5-20.5s20.5,9.2,20.5,20.5S102.1,113.8,90.8,113.8z
		 M90.8,75.8c-9.6,0-17.4,7.9-17.4,17.5s7.8,17.4,17.4,17.4s17.4-7.8,17.4-17.4S100.3,75.8,90.8,75.8z"/>
	<path class="st0" d="M64.9,69.9c-0.3,0-0.5-0.1-0.8-0.3l-9.5-7c-0.4-0.3-0.6-0.9-0.4-1.5l1.9-5.4c0.2-0.5,0.7-0.9,1.2-0.9h15.1
		c0.5,0,1,0.3,1.2,0.9l2.1,5.4c0.2,0.5,0,1.1-0.4,1.5l-9.5,7C65.4,69.8,65.2,69.9,64.9,69.9z M57,61.2l8,5.8l8-5.8l-1.4-3.7H58.3
		L57,61.2z"/>
	<g>
		<path class="st0" d="M77.8,43.7c-0.2-0.2-0.5-0.3-0.8-0.3c-0.3,0-0.6,0.1-0.8,0.3l-5,5c-0.2,0.2-0.3,0.5-0.3,0.8
			c0,0.3,0.1,0.6,0.3,0.8c0.4,0.4,1.2,0.4,1.6,0l5-5C78.3,44.9,78.3,44.2,77.8,43.7z"/>
		<path class="st0" d="M66.2,40.5c0-0.6-0.7-1.1-1.3-1.1s-1.3,0.5-1.3,1.1v7.1c0,0.6,0.7,1.1,1.3,1.1s1.3-0.5,1.3-1.1V40.5z"/>
		<path class="st0" d="M58.6,48.8l-5-5c-0.2-0.2-0.5-0.3-0.8-0.3c-0.3,0-0.6,0.1-0.8,0.3c-0.4,0.4-0.4,1.1,0,1.6l5,5
			c0.4,0.4,1.2,0.4,1.6,0c0.2-0.2,0.3-0.5,0.3-0.8C58.9,49.3,58.8,48.9,58.6,48.8z"/>
	</g>
	<polygon class="st0" points="64.9,68.3 58.3,56.9 60.6,55.6 64.9,63.2 68.8,56.3 71,57.6 	"/>
</g>
</svg>
